<svg width="159" height="31" viewBox="0 0 159 31" fill="none" xmlns="http://www.w3.org/2000/svg">
<path d="M16 24.9142L25.888 31L23.264 19.53L32 11.8126L20.496 10.8011L16 0L11.504 10.8011L0 11.8126L8.72 19.53L6.112 31L16 24.9142Z" fill="#D1B000"/>
<path d="M48 24.9142L57.888 31L55.264 19.53L64 11.8126L52.496 10.8011L48 0L43.504 10.8011L32 11.8126L40.72 19.53L38.112 31L48 24.9142Z" fill="#D1B000"/>
<path d="M80 24.9142L89.888 31L87.264 19.53L96 11.8126L84.496 10.8011L80 0L75.504 10.8011L64 11.8126L72.72 19.53L70.112 31L80 24.9142Z" fill="#D1B000"/>
<path d="M111.524 24.0626L111 23.74L110.476 24.0626L102.615 28.9008L104.695 19.7517L104.826 19.1739L104.383 18.7812L97.4043 12.6051L106.592 11.7972L107.195 11.7442L107.427 11.1853L111 2.60219L114.573 11.1853L114.805 11.7442L115.408 11.7972L124.593 12.6048L117.602 18.7806L117.157 19.1739L117.289 19.753L119.381 28.8985L111.524 24.0626Z" stroke="#D1B000" stroke-width="2"/>
<path d="M143.524 24.0626L143 23.74L142.476 24.0626L134.615 28.9008L136.695 19.7517L136.826 19.1739L136.383 18.7812L129.404 12.6051L138.592 11.7972L139.195 11.7442L139.427 11.1853L143 2.60219L146.573 11.1853L146.805 11.7442L147.408 11.7972L156.593 12.6048L149.602 18.7806L149.157 19.1739L149.289 19.753L151.381 28.8985L143.524 24.0626Z" stroke="#D1B000" stroke-width="2"/>
</svg>
